<?xml version="1.0" encoding="UTF-8" standalone="no" ?>
<!DOCTYPE svg PUBLIC "-//W3C//DTD SVG 1.1//EN" "http://www.w3.org/Graphics/SVG/1.1/DTD/svg11.dtd">
<svg xmlns="http://www.w3.org/2000/svg" xmlns:xlink="http://www.w3.org/1999/xlink" version="1.1" width="1080" height="1080" viewBox="0 0 1080 1080" xml:space="preserve">
<desc>Created with Fabric.js 5.2.4</desc>
<defs>
</defs>
<g transform="matrix(1 0 0 1 540 540)" id="d06f9c24-77f0-47c6-b5d0-3a7e94881414"  >
<rect style="stroke: none; stroke-width: 1; stroke-dasharray: none; stroke-linecap: butt; stroke-dashoffset: 0; stroke-linejoin: miter; stroke-miterlimit: 4; fill: rgb(255,255,255); fill-rule: nonzero; opacity: 1; visibility: hidden;" vector-effect="non-scaling-stroke"  x="-540" y="-540" rx="0" ry="0" width="1080" height="1080" />
</g>
<g transform="matrix(1 0 0 1 540 540)" id="519b921d-5058-4f19-9620-4a1e9f1b5427"  >
</g>
<g transform="matrix(67.5 0 0 67.5 540 540)"  >
<path style="stroke: none; stroke-width: 1; stroke-dasharray: none; stroke-linecap: butt; stroke-dashoffset: 0; stroke-linejoin: miter; stroke-miterlimit: 4; fill: rgb(255,108,2); fill-rule: nonzero; opacity: 1;"  transform=" translate(-7.5, -8)" d="M 7 1 L 7 7.88599 L 4.729 5.59003 C 3.056 6.68803 2 8.20798 2 9.90698 C 2 12.006 3.595 13.845 6 14.933 L 6 12.515 C 6 11.679 6.673 10.999 7.5 10.999 C 8.327 10.999 9 11.679 9 12.515 L 9 15 C 11.389 13.68 13 11.22 13 8.39099 C 13 4.82899 10.448 1.85 7 1 Z" stroke-linecap="round" />
</g>
</svg>